<?xml version="1.0" standalone="no"?>
<!DOCTYPE svg PUBLIC "-//W3C//DTD SVG 20010904//EN"
 "http://www.w3.org/TR/2001/REC-SVG-20010904/DTD/svg10.dtd">
<svg version="1.0" xmlns="http://www.w3.org/2000/svg"
 width="222.000000pt" height="222.000000pt" viewBox="0 0 222.000000 222.000000"
 preserveAspectRatio="xMidYMid meet">

<g transform="translate(0.000000,222.000000) scale(0.100000,-0.100000)"
fill="#000000" stroke="none">
<path id="head" fill="#aa5500" d="M1021 1789 c-232 -39 -404 -278 -361 -505 36 -189 166 -319 360 -360
182 -38 382 49 477 207 107 178 72 407 -82 546 -63 58 -127 90 -216 108 -77
16 -98 17 -178 4z"/>
<path id="body" fill="#aa5500" d="M846 739 c-199 -26 -358 -91 -441 -180 -96 -104 -132 -213 -142 -427
l-6 -132 845 0 845 0 7 48 c7 57 -9 227 -29 306 -23 87 -62 155 -124 216 -90
87 -205 133 -416 165 -110 16 -422 19 -539 4z"/>
</g>
</svg>
